<?xml version="1.0" encoding="utf-8"?>
<!-- Generator: Adobe Illustrator 23.0.6, SVG Export Plug-In . SVG Version: 6.00 Build 0)  -->
<svg version="1.1" id="Layer_1" xmlns="http://www.w3.org/2000/svg" xmlns:xlink="http://www.w3.org/1999/xlink" x="0px" y="0px"
	 viewBox="0 0 1366 768" xml:space="preserve">
<style type="text/css">
	.st0{fill:transparent;}
	.st1{fill:#E50914;}
	.st2{fill:#960E2E;}
</style>
<rect class="st0" width="1366" height="768"/>
<g>
	<path class="st1" d="M337.22,498.75h-162.4V269.25h162.4v43.01H223.68v48.17h111.13v43.01H223.68v52.3h113.54V498.75z"/>
	<path class="st1" d="M862.94,498.75H738.39V269.25h120.77c20.87,0,37.1,5.68,48.69,17.03c11.58,11.35,17.37,25.18,17.37,41.46
		c0,13.76-3.78,25.41-11.35,34.92c-7.57,9.52-16.98,15.43-28.21,17.72c12.39,1.84,22.82,8.09,31.31,18.75
		c8.48,10.67,12.73,23.11,12.73,37.33c0,18.12-5.79,33.03-17.37,44.73C900.73,492.9,884.28,498.75,862.94,498.75z M848.49,360.43
		c8.26,0,14.8-2.18,19.61-6.54c4.82-4.36,7.23-10.2,7.23-17.55c0-7.11-2.41-12.9-7.23-17.38c-4.82-4.47-11.35-6.71-19.61-6.71
		h-61.24v48.17H848.49z M850.56,455.74c9.17,0,16.34-2.29,21.5-6.88c5.16-4.59,7.74-11.01,7.74-19.27c0-7.57-2.58-13.82-7.74-18.75
		c-5.16-4.93-12.33-7.4-21.5-7.4h-63.31v52.3H850.56z"/>
	<path class="st1" d="M1103.45,498.75h-48.86v-93.93l-88.08-135.56h55.74l56.77,91.87l56.77-91.87h55.39l-87.74,135.56V498.75z"/>
	<polygon class="st1" points="589.76,269.25 534.02,366.37 478.28,269.25 409.81,269.25 409.81,498.75 458.67,498.75 458.67,342.45 
		534.02,455.32 609.37,342.76 609.37,498.75 658.57,498.75 658.57,269.25 	"/>
	<polygon class="st2" points="658.57,269.25 609.37,342.76 609.37,367.52 	"/>
	<polygon class="st2" points="409.81,269.25 459.01,342.76 458.67,367.52 	"/>
</g>
</svg>
